<svg xmlns="http://www.w3.org/2000/svg" width="41" height="37" fill="none"><path fill="#fff" d="M15.418 31.254c-1.788 0-3.24 1.31-3.24 2.924 0 1.613 1.452 2.923 3.24 2.923 1.787 0 3.24-1.31 3.24-2.923s-1.565-2.924-3.24-2.924Zm16.198 0c-1.787 0-3.24 1.31-3.24 2.924 0 1.613 1.453 2.923 3.24 2.923 1.788 0 3.24-1.31 3.24-2.923s-1.564-2.924-3.24-2.924ZM38.766 5.545H10.5l-.893-3.327C9.272 1.008 8.044 0 6.59 0h-4.58C.894 0 0 .807 0 1.815s.894 1.814 2.01 1.814h3.911l5.25 18.248-2.122 4.335c-.223.505-.223 1.21.112 1.714.335.505 1.005.807 1.675.807h24.578c1.117 0 2.011-.807 2.011-1.815s-.894-1.814-2.01-1.814H13.852l1.229-2.42v-.1h20.332c1.006 0 1.9-.606 2.123-1.513L41 7.965c.335-1.21-.782-2.42-2.234-2.42Zm-18.992 11.09c0 .706-.67 1.31-1.453 1.31-.782 0-1.452-.604-1.452-1.31v-5.142c0-.706.67-1.31 1.453-1.31.782 0 1.452.604 1.452 1.31v5.142Zm6.703 0c0 .706-.67 1.31-1.453 1.31-.782 0-1.452-.604-1.452-1.31v-5.142c0-.706.67-1.31 1.453-1.31.782 0 1.452.604 1.452 1.31v5.142Zm6.703 0c0 .706-.67 1.31-1.453 1.31-.782 0-1.452-.604-1.452-1.31v-5.142c0-.706.67-1.31 1.453-1.31.782 0 1.452.604 1.452 1.31v5.142Z"/></svg>