<svg width="24" height="24" viewBox="0 0 24 24" fill="none" xmlns="http://www.w3.org/2000/svg">
<path d="M3.50098 12.9464H20.501M9.87598 16.7242L9.16764 19.5575L8.2232 20.502H15.7788L14.8343 19.5575L14.126 16.7242H9.87598ZM5.38987 16.7242H18.6121C19.1131 16.7242 19.5935 16.5252 19.9477 16.1709C20.302 15.8167 20.501 15.3362 20.501 14.8353V5.39084C20.501 4.88988 20.302 4.40943 19.9477 4.0552C19.5935 3.70096 19.1131 3.50195 18.6121 3.50195H5.38987C4.8889 3.50195 4.40845 3.70096 4.05422 4.0552C3.69998 4.40943 3.50098 4.88988 3.50098 5.39084V14.8353C3.50098 15.3362 3.69998 15.8167 4.05422 16.1709C4.40845 16.5252 4.8889 16.7242 5.38987 16.7242Z" stroke="#FC7941" stroke-width="2" stroke-linecap="round" stroke-linejoin="round"/>
</svg>
