<svg xmlns="http://www.w3.org/2000/svg" width="60" height="72" fill="none"><path stroke="#FF588A" stroke-linecap="round" stroke-linejoin="round" stroke-miterlimit="10" stroke-width="3" d="M55 17.787v7.173c0 4.684-2.5 7.648-6.45 7.648H40v-20.72c0-3.29 2.275-5.958 5.05-5.958 2.725.03 5.225 1.334 7.025 3.468 1.8 2.164 2.925 5.128 2.925 8.389Z"/><path stroke="#FF588A" stroke-linecap="round" stroke-linejoin="round" stroke-miterlimit="10" stroke-width="3" d="M5 20.751v41.5c0 2.46 2.35 3.854 4 2.372l4.275-3.795c1-.889 2.4-.77 3.3.297l4.15 4.95c.975 1.156 2.575 1.156 3.55 0l4.2-4.98c.875-1.038 2.275-1.156 3.25-.267L36 64.622c1.65 1.453 4 .06 4-2.37V11.857c0-3.26 2.25-5.928 5-5.928H15c-7.5 0-10 5.306-10 11.857v2.964Z"/><path stroke="#FF588A" stroke-linecap="round" stroke-linejoin="round" stroke-width="3" d="M22.5 38.566H30M22.5 26.71H30M14.99 38.537h.022M14.99 26.68h.022"/></svg>