<svg xmlns="http://www.w3.org/2000/svg" width="60" height="60" fill="none"><path stroke="#FF588A" stroke-linecap="round" stroke-linejoin="round" stroke-width="3" d="m7.5 12.5 5 5 10-10"/><path stroke="#FF588A" stroke-linecap="round" stroke-width="3" d="M33.75 9.375h15a3.75 3.75 0 1 1 0 7.5h-15a3.75 3.75 0 0 1 0-7.5Z"/><path stroke="#FF588A" stroke-linecap="round" stroke-linejoin="round" stroke-width="3" d="m7.5 30.938 5 4.687 10-9.375"/><path stroke="#FF588A" stroke-linecap="round" stroke-width="3" d="M48.75 26.25h-15a3.75 3.75 0 0 0 0 7.5h15a3.75 3.75 0 0 0 0-7.5Z"/><path stroke="#FF588A" stroke-linecap="round" stroke-linejoin="round" stroke-width="3" d="m7.5 47.813 5 4.687 10-9.375"/><path stroke="#FF588A" stroke-linecap="round" stroke-width="3" d="M48.75 45h-15a3.75 3.75 0 0 0 0 7.5h15a3.75 3.75 0 0 0 0-7.5Z"/></svg>