<svg xmlns="http://www.w3.org/2000/svg" width="25" height="25" fill="none"><rect width="24" height="24" x=".885" y=".938" fill="#111827" rx="12"/><path fill="#111827" d="M10.91 18.655c-3.59 1.141-3.59-1.903-5.025-2.283l5.025 2.283Zm5.026 2.282v-2.944a2.706 2.706 0 0 0-.136-1.07 2.593 2.593 0 0 0-.539-.916c2.255-.267 4.624-1.172 4.624-5.327a4.275 4.275 0 0 0-1.077-2.853 4.072 4.072 0 0 0-.065-2.87s-.847-.265-2.807 1.127a9.083 9.083 0 0 0-5.026 0C8.95 4.692 8.103 4.958 8.103 4.958a4.072 4.072 0 0 0-.064 2.869 4.276 4.276 0 0 0-1.077 2.876c0 4.124 2.369 5.03 4.623 5.326a2.592 2.592 0 0 0-.534.906 2.708 2.708 0 0 0-.14 1.058v2.945"/><path stroke="#F9FAFB" stroke-linecap="round" stroke-linejoin="round" stroke-width="1.4" d="M15.936 20.938v-2.945a2.706 2.706 0 0 0-.136-1.07 2.593 2.593 0 0 0-.539-.916c2.255-.267 4.624-1.172 4.624-5.327a4.275 4.275 0 0 0-1.077-2.853 4.072 4.072 0 0 0-.065-2.87s-.847-.265-2.807 1.127a9.083 9.083 0 0 0-5.026 0C8.95 4.692 8.103 4.958 8.103 4.958a4.072 4.072 0 0 0-.064 2.869 4.276 4.276 0 0 0-1.077 2.876c0 4.124 2.369 5.03 4.623 5.326a2.592 2.592 0 0 0-.534.906 2.708 2.708 0 0 0-.14 1.058v2.945m0-2.283c-3.59 1.141-3.59-1.903-5.026-2.283l5.025 2.283Z"/></svg>