<svg width="24" height="24" viewBox="0 0 24 24" fill="none" xmlns="http://www.w3.org/2000/svg">
<rect width="24" height="24" rx="12" fill="white"/>
<path d="M10.0256 17.7172C6.4359 18.8586 6.4359 15.8149 5 15.4344L10.0256 17.7172ZM15.0513 20V17.0552C15.0782 16.6923 15.032 16.3276 14.9156 15.9852C14.7992 15.6427 14.6154 15.3305 14.3764 15.0691C16.6308 14.8028 19 13.8973 19 9.74261C18.9998 8.68022 18.6142 7.65856 17.9231 6.88911C18.2504 5.95963 18.2272 4.93225 17.8585 4.02039C17.8585 4.02039 17.0113 3.75406 15.0513 5.14657C13.4057 4.67389 11.6712 4.67389 10.0256 5.14657C8.06564 3.75406 7.21846 4.02039 7.21846 4.02039C6.84971 4.93225 6.82657 5.95963 7.15385 6.88911C6.45753 7.66427 6.07155 8.69516 6.07692 9.76544C6.07692 13.8897 8.44615 14.7952 10.7005 15.092C10.4643 15.3507 10.2821 15.6592 10.1659 15.9974C10.0496 16.3357 10.0018 16.6961 10.0256 17.0552V20" fill="#13131C"/>
<path d="M15.0513 20V17.0552C15.0782 16.6923 15.032 16.3276 14.9156 15.9852C14.7992 15.6427 14.6154 15.3305 14.3764 15.0691C16.6308 14.8028 19 13.8973 19 9.74261C18.9998 8.68022 18.6142 7.65856 17.9231 6.88911C18.2504 5.95963 18.2272 4.93225 17.8585 4.02039C17.8585 4.02039 17.0113 3.75406 15.0513 5.14657C13.4057 4.67389 11.6712 4.67389 10.0256 5.14657C8.06564 3.75406 7.21846 4.02039 7.21846 4.02039C6.84971 4.93225 6.82657 5.95963 7.15385 6.88911C6.45753 7.66427 6.07155 8.69516 6.07692 9.76544C6.07692 13.8897 8.44615 14.7952 10.7005 15.092C10.4643 15.3507 10.2821 15.6592 10.1659 15.9974C10.0496 16.3357 10.0018 16.6961 10.0256 17.0552V20M10.0256 17.7172C6.4359 18.8586 6.4359 15.8149 5 15.4344L10.0256 17.7172Z" stroke="white" stroke-width="1.4" stroke-linecap="round" stroke-linejoin="round"/>
</svg>
