<svg xmlns="http://www.w3.org/2000/svg" width="23" height="23" fill="none"><path fill="#000" d="M11.429 0C5.117 0 0 5.117 0 11.429s5.117 11.428 11.429 11.428 11.428-5.116 11.428-11.428C22.857 5.117 17.741 0 11.43 0Zm0 1.656c2.49 0 4.762.931 6.488 2.464-1.268 1.673-3.195 2.786-5.125 3.54a50.906 50.906 0 0 0-3.666-5.731 9.79 9.79 0 0 1 2.303-.273Zm-4.158.926c1.274 1.906 2.508 3.673 3.636 5.674-2.852.739-6.074 1.182-9.05 1.19A9.79 9.79 0 0 1 7.27 2.582ZM19 5.25a9.734 9.734 0 0 1 2.2 6.114 22.926 22.926 0 0 0-6.798-.331c-.257-.642-.569-1.252-.868-1.909 1.974-.796 4.083-2.158 5.466-3.874Zm-7.3 4.518c.244.52.528 1.072.794 1.636-3.183 1.403-6.569 3.279-8.326 6.567a9.739 9.739 0 0 1-2.508-6.829c3.408-.016 6.754-.442 10.04-1.374Zm5.164 2.665c1.422 0 2.839.182 4.214.542a9.771 9.771 0 0 1-4.198 6.564c-.524-2.385-1.024-4.668-1.908-6.97a13.12 13.12 0 0 1 1.892-.137Zm4.265.177-.02.165.02-.165Zm-7.965.405c.9 2.328 1.607 4.905 2.081 7.413a9.74 9.74 0 0 1-3.817.774 9.73 9.73 0 0 1-5.997-2.057 14.533 14.533 0 0 1 7.732-6.129Z"/></svg>