<svg xmlns="http://www.w3.org/2000/svg" width="161" height="64" fill="none"><path fill="#21428A" d="M92.717 37.792c-1.866 0-3.416-.262-4.648-.784-1.232-.542-2.165-1.242-2.8-2.1-.634-.859-.97-1.774-1.008-2.744 0-.15.056-.28.168-.392.13-.13.28-.196.448-.196h3.528c.262 0 .458.046.588.14.15.093.28.214.392.364.15.28.355.55.616.812.28.261.635.476 1.064.644.448.15.999.224 1.652.224 1.083 0 1.895-.168 2.436-.504.56-.336.84-.794.84-1.372 0-.41-.15-.747-.448-1.008-.298-.28-.784-.523-1.456-.728-.653-.224-1.53-.448-2.632-.672-1.418-.299-2.632-.682-3.64-1.148-.99-.486-1.745-1.11-2.268-1.876-.522-.784-.784-1.755-.784-2.912 0-1.139.318-2.156.952-3.052.654-.896 1.559-1.596 2.716-2.1 1.158-.504 2.53-.756 4.116-.756 1.288 0 2.418.168 3.388.504.99.336 1.82.784 2.492 1.344.672.56 1.176 1.157 1.512 1.792.355.616.542 1.222.56 1.82 0 .15-.056.29-.168.42a.57.57 0 0 1-.42.168h-3.696c-.205 0-.382-.038-.532-.112a1.032 1.032 0 0 1-.392-.364c-.112-.41-.41-.766-.896-1.064-.466-.318-1.082-.476-1.848-.476-.821 0-1.465.15-1.932.448-.448.28-.672.718-.672 1.316 0 .373.122.7.364.98.262.28.682.522 1.26.728.598.205 1.41.42 2.436.644 1.699.317 3.07.718 4.116 1.204 1.046.466 1.81 1.082 2.296 1.848.486.746.728 1.69.728 2.828 0 1.27-.364 2.37-1.092 3.304-.71.914-1.698 1.614-2.968 2.1-1.27.485-2.725.728-4.368.728Zm11.623-.28a.683.683 0 0 1-.504-.196.685.685 0 0 1-.196-.504v-18.48c0-.206.066-.374.196-.504a.684.684 0 0 1 .504-.196h3.584a.68.68 0 0 1 .504.196c.131.13.196.298.196.504v6.244a5.44 5.44 0 0 1 1.848-1.372c.747-.355 1.606-.532 2.576-.532 1.083 0 2.044.242 2.884.728.859.485 1.531 1.204 2.016 2.156.486.933.728 2.081.728 3.444v7.812a.68.68 0 0 1-.196.504.68.68 0 0 1-.504.196h-3.612a.748.748 0 0 1-.504-.196.685.685 0 0 1-.196-.504v-7.644c0-.878-.214-1.55-.644-2.016-.41-.486-1.026-.728-1.848-.728-.765 0-1.381.242-1.848.728-.466.466-.7 1.138-.7 2.016v7.644a.68.68 0 0 1-.196.504.68.68 0 0 1-.504.196h-3.584Zm24.399.28c-1.568 0-2.893-.252-3.976-.756-1.064-.504-1.885-1.223-2.464-2.156-.56-.952-.877-2.082-.952-3.388a26.303 26.303 0 0 1-.028-1.26c0-.486.01-.906.028-1.26.075-1.326.411-2.455 1.008-3.388.598-.934 1.428-1.652 2.492-2.156 1.083-.504 2.38-.756 3.892-.756 1.531 0 2.828.252 3.892.756 1.083.504 1.923 1.222 2.52 2.156.598.933.934 2.062 1.008 3.388.019.354.028.774.028 1.26 0 .466-.009.886-.028 1.26-.074 1.306-.401 2.436-.98 3.388-.56.933-1.381 1.652-2.464 2.156-1.064.504-2.389.756-3.976.756Zm0-3.416c.84 0 1.447-.252 1.82-.756.392-.504.616-1.26.672-2.268.019-.28.028-.654.028-1.12 0-.467-.009-.84-.028-1.12-.056-.99-.28-1.736-.672-2.24-.373-.523-.98-.784-1.82-.784-.821 0-1.428.261-1.82.784-.392.504-.606 1.25-.644 2.24-.018.28-.028.653-.028 1.12 0 .466.01.84.028 1.12.038 1.008.252 1.764.644 2.268.392.504.999.756 1.82.756Zm10.902 8.456a.683.683 0 0 1-.504-.196.68.68 0 0 1-.196-.504v-18.48c0-.206.065-.374.196-.504a.684.684 0 0 1 .504-.196h3.164c.187 0 .345.065.476.196a.64.64 0 0 1 .224.504v1.036c.429-.579.999-1.055 1.708-1.428.709-.392 1.587-.588 2.632-.588.933 0 1.755.15 2.464.448.709.28 1.316.7 1.82 1.26s.896 1.241 1.176 2.044c.299.802.467 1.726.504 2.772.019.373.028.718.028 1.036 0 .317-.009.662-.028 1.036-.037 1.008-.196 1.913-.476 2.716-.28.802-.672 1.484-1.176 2.044-.504.56-1.12.998-1.848 1.316-.709.298-1.531.448-2.464.448-.915 0-1.717-.159-2.408-.476a4.696 4.696 0 0 1-1.68-1.4v6.216a.68.68 0 0 1-.196.504.683.683 0 0 1-.504.196h-3.416Zm6.692-8.792c.635 0 1.129-.13 1.484-.392s.607-.616.756-1.064c.168-.448.271-.943.308-1.484a13.59 13.59 0 0 0 0-1.736 5.223 5.223 0 0 0-.308-1.484 2.109 2.109 0 0 0-.756-1.064c-.355-.262-.849-.392-1.484-.392-.616 0-1.111.14-1.484.42a2.23 2.23 0 0 0-.812 1.036c-.168.43-.261.896-.28 1.4a19.365 19.365 0 0 0 0 2.1c.019.466.121.905.308 1.316.187.392.467.718.84.98.373.242.849.364 1.428.364Z"/><g clip-path="url(#a)"><path fill="#FF588A" d="M80.538 29.142c0-13.528-10.662-24.495-23.816-24.495-3.146 0-6.144.63-8.897 1.771C44.032 2.454 38.76 0 32.932 0 21.745 0 12.603 9.06 12.07 20.432 5 23.38 0 30.509 0 38.85c0 10.958 8.644 19.848 19.298 19.848 2.456 0 4.798-.467 6.957-1.33 0 0 6.695-2.697 13.25-3.254 6.222-.53 16.186-.476 17.165-.476h.087c13.136-.018 23.781-10.976 23.781-24.496Z"/><path fill="#F9F9FB" d="M52.352 39.147c-6.214 0-11.274-5.205-11.274-11.596s5.06-11.596 11.274-11.596c6.214 0 11.275 5.205 11.275 11.596s-5.06 11.596-11.275 11.596Zm0-17.798c-3.321 0-6.03 2.786-6.03 6.202s2.709 6.202 6.03 6.202 6.03-2.786 6.03-6.202-2.709-6.202-6.03-6.202ZM67.254 37.752c1.303 0 2.36-1.086 2.36-2.427 0-1.34-1.057-2.427-2.36-2.427-1.304 0-2.36 1.087-2.36 2.427s1.056 2.427 2.36 2.427ZM39.286 18.95c-.009-1.483-1.18-2.678-2.622-2.678h-.018c-1.45.009-2.613 1.222-2.604 2.714 0 .027-.009 2.32-.787 5.483-.524 2.122-1.494 4.99-3.251 7.848-1.329-.818-3.138-2.122-4.553-3.794-2.544-3.002-3.13-7.01-3.138-7.047v.01h-.018c-.21-1.277-1.284-2.248-2.587-2.248-1.45 0-2.622 1.204-2.622 2.697 0 .251.035.494.097.728.253 1.42 1.258 5.816 4.308 9.402 1.652 1.95 3.636 3.461 5.236 4.504-5.393 5.95-9.177 7.164-9.247 7.2-1.32.611-1.906 2.211-1.311 3.569a2.62 2.62 0 0 0 2.395 1.59c.358 0 .725-.08 1.075-.242.375-.17 5.427-1.888 12.192-9.879 7.437-8.8 7.455-19.407 7.455-19.857ZM77.776 3.909c-1.372-.468-2.858.296-3.312 1.708l-6.328 23.452c-.043.144-.07.288-.07.44 0 .8.63 1.448 1.407 1.448.586 0 1.093-.369 1.303-.9h.008l8.653-22.741c.463-1.403-.28-2.93-1.66-3.407Z"/></g><defs><clipPath id="a"><path fill="#fff" d="M0 0h80.538v58.698H0z"/></clipPath></defs></svg>