<svg width="185" height="64" viewBox="0 0 185 64" fill="none" xmlns="http://www.w3.org/2000/svg">
<path d="M92.8749 37.655C91.0083 37.655 89.4589 37.3937 88.2269 36.871C86.9949 36.3297 86.0616 35.6297 85.4269 34.771C84.7923 33.9123 84.4563 32.9977 84.4189 32.027C84.4189 31.8777 84.4749 31.747 84.5869 31.635C84.7176 31.5043 84.8669 31.439 85.0349 31.439H88.5629C88.8243 31.439 89.0203 31.4857 89.1509 31.579C89.3003 31.6723 89.4309 31.7937 89.5429 31.943C89.6923 32.223 89.8976 32.4937 90.1589 32.755C90.4389 33.0163 90.7936 33.231 91.2229 33.399C91.6709 33.5483 92.2216 33.623 92.8749 33.623C93.9576 33.623 94.7696 33.455 95.3109 33.119C95.8709 32.783 96.1509 32.3257 96.1509 31.747C96.1509 31.3363 96.0016 31.0003 95.7029 30.739C95.4043 30.459 94.9189 30.2163 94.2469 30.011C93.5936 29.787 92.7163 29.563 91.6149 29.339C90.1963 29.0403 88.9829 28.6577 87.9749 28.191C86.9856 27.7057 86.2296 27.0803 85.7069 26.315C85.1843 25.531 84.9229 24.5603 84.9229 23.403C84.9229 22.2643 85.2403 21.247 85.8749 20.351C86.5283 19.455 87.4336 18.755 88.5909 18.251C89.7483 17.747 91.1203 17.495 92.7069 17.495C93.9949 17.495 95.1243 17.663 96.0949 17.999C97.0843 18.335 97.9149 18.783 98.5869 19.343C99.2589 19.903 99.7629 20.5003 100.099 21.135C100.454 21.751 100.64 22.3577 100.659 22.955C100.659 23.1043 100.603 23.2443 100.491 23.375C100.379 23.487 100.239 23.543 100.071 23.543H96.3749C96.1696 23.543 95.9923 23.5057 95.8429 23.431C95.6936 23.3563 95.5629 23.235 95.4509 23.067C95.3389 22.6563 95.0403 22.3017 94.5549 22.003C94.0883 21.6857 93.4723 21.527 92.7069 21.527C91.8856 21.527 91.2416 21.6763 90.7749 21.975C90.3269 22.255 90.1029 22.6937 90.1029 23.291C90.1029 23.6643 90.2243 23.991 90.4669 24.271C90.7283 24.551 91.1483 24.7937 91.7269 24.999C92.3243 25.2043 93.1363 25.419 94.1629 25.643C95.8616 25.9603 97.2336 26.3617 98.2789 26.847C99.3243 27.3137 100.09 27.9297 100.575 28.695C101.06 29.4417 101.303 30.3843 101.303 31.523C101.303 32.7923 100.939 33.8937 100.211 34.827C99.5016 35.7417 98.5123 36.4417 97.2429 36.927C95.9736 37.4123 94.5176 37.655 92.8749 37.655ZM104.498 37.375C104.293 37.375 104.125 37.3097 103.994 37.179C103.863 37.0483 103.798 36.8803 103.798 36.675V18.195C103.798 17.9897 103.863 17.8217 103.994 17.691C104.125 17.5603 104.293 17.495 104.498 17.495H108.082C108.287 17.495 108.455 17.5603 108.586 17.691C108.717 17.8217 108.782 17.9897 108.782 18.195V24.439C109.286 23.8603 109.902 23.403 110.63 23.067C111.377 22.7123 112.235 22.535 113.206 22.535C114.289 22.535 115.25 22.7777 116.09 23.263C116.949 23.7483 117.621 24.467 118.106 25.419C118.591 26.3523 118.834 27.5003 118.834 28.863V36.675C118.834 36.8803 118.769 37.0483 118.638 37.179C118.507 37.3097 118.339 37.375 118.134 37.375H114.522C114.335 37.375 114.167 37.3097 114.018 37.179C113.887 37.0483 113.822 36.8803 113.822 36.675V29.031C113.822 28.1537 113.607 27.4817 113.178 27.015C112.767 26.5297 112.151 26.287 111.33 26.287C110.565 26.287 109.949 26.5297 109.482 27.015C109.015 27.4817 108.782 28.1537 108.782 29.031V36.675C108.782 36.8803 108.717 37.0483 108.586 37.179C108.455 37.3097 108.287 37.375 108.082 37.375H104.498ZM128.897 37.655C127.329 37.655 126.004 37.403 124.921 36.899C123.857 36.395 123.036 35.6763 122.457 34.743C121.897 33.791 121.58 32.6617 121.505 31.355C121.486 30.9817 121.477 30.5617 121.477 30.095C121.477 29.6097 121.486 29.1897 121.505 28.835C121.58 27.5097 121.916 26.3803 122.513 25.447C123.11 24.5137 123.941 23.795 125.005 23.291C126.088 22.787 127.385 22.535 128.897 22.535C130.428 22.535 131.725 22.787 132.789 23.291C133.872 23.795 134.712 24.5137 135.309 25.447C135.906 26.3803 136.242 27.5097 136.317 28.835C136.336 29.1897 136.345 29.6097 136.345 30.095C136.345 30.5617 136.336 30.9817 136.317 31.355C136.242 32.6617 135.916 33.791 135.337 34.743C134.777 35.6763 133.956 36.395 132.873 36.899C131.809 37.403 130.484 37.655 128.897 37.655ZM128.897 34.239C129.737 34.239 130.344 33.987 130.717 33.483C131.109 32.979 131.333 32.223 131.389 31.215C131.408 30.935 131.417 30.5617 131.417 30.095C131.417 29.6283 131.408 29.255 131.389 28.975C131.333 27.9857 131.109 27.239 130.717 26.735C130.344 26.2123 129.737 25.951 128.897 25.951C128.076 25.951 127.469 26.2123 127.077 26.735C126.685 27.239 126.47 27.9857 126.433 28.975C126.414 29.255 126.405 29.6283 126.405 30.095C126.405 30.5617 126.414 30.935 126.433 31.215C126.47 32.223 126.685 32.979 127.077 33.483C127.469 33.987 128.076 34.239 128.897 34.239ZM139.799 42.695C139.593 42.695 139.425 42.6297 139.295 42.499C139.164 42.3683 139.099 42.2003 139.099 41.995V23.515C139.099 23.3097 139.164 23.1417 139.295 23.011C139.425 22.8803 139.593 22.815 139.799 22.815H142.963C143.149 22.815 143.308 22.8803 143.439 23.011C143.588 23.1417 143.663 23.3097 143.663 23.515V24.551C144.092 23.9723 144.661 23.4963 145.371 23.123C146.08 22.731 146.957 22.535 148.003 22.535C148.936 22.535 149.757 22.6843 150.467 22.983C151.176 23.263 151.783 23.683 152.287 24.243C152.791 24.803 153.183 25.4843 153.463 26.287C153.761 27.0897 153.929 28.0137 153.967 29.059C153.985 29.4323 153.995 29.7777 153.995 30.095C153.995 30.4123 153.985 30.7577 153.967 31.131C153.929 32.139 153.771 33.0443 153.491 33.847C153.211 34.6497 152.819 35.331 152.315 35.891C151.811 36.451 151.195 36.8897 150.467 37.207C149.757 37.5057 148.936 37.655 148.003 37.655C147.088 37.655 146.285 37.4963 145.595 37.179C144.923 36.843 144.363 36.3763 143.915 35.779V41.995C143.915 42.2003 143.849 42.3683 143.719 42.499C143.588 42.6297 143.42 42.695 143.215 42.695H139.799ZM146.491 33.903C147.125 33.903 147.62 33.7723 147.975 33.511C148.329 33.2497 148.581 32.895 148.731 32.447C148.899 31.999 149.001 31.5043 149.039 30.963C149.076 30.3843 149.076 29.8057 149.039 29.227C149.001 28.6857 148.899 28.191 148.731 27.743C148.581 27.295 148.329 26.9403 147.975 26.679C147.62 26.4177 147.125 26.287 146.491 26.287C145.875 26.287 145.38 26.427 145.007 26.707C144.633 26.9683 144.363 27.3137 144.195 27.743C144.027 28.1723 143.933 28.639 143.915 29.143C143.896 29.4977 143.887 29.843 143.887 30.179C143.887 30.515 143.896 30.8697 143.915 31.243C143.933 31.7097 144.036 32.1483 144.223 32.559C144.409 32.951 144.689 33.2777 145.063 33.539C145.436 33.7817 145.912 33.903 146.491 33.903Z" fill="white"/>
<g clip-path="url(#clip0_3524_27633)">
<path d="M80.6905 28.7957C80.6905 15.4282 70.0077 4.59204 56.8293 4.59204C53.6769 4.59204 50.6735 5.21378 47.9152 6.34181C44.1149 2.42481 38.8348 0 32.9942 0C21.786 0 12.6268 8.95314 12.0926 20.189C5.00868 23.1023 0 30.1458 0 38.3884C0 49.2156 8.66011 58 19.3342 58C21.7948 58 24.1415 57.5381 26.3043 56.6855C26.3043 56.6855 33.0118 54.0208 39.5791 53.4701C45.8137 52.9461 55.796 52.9994 56.7767 52.9994C56.7942 52.9994 56.803 52.9994 56.8205 52.9994C56.8293 52.9994 56.8292 52.9994 56.838 52.9994C56.8555 52.9994 56.8643 52.9994 56.8643 52.9994C70.0252 52.9816 80.6905 42.1544 80.6905 28.7957Z" fill="#F97316"/>
<path d="M52.4511 38.6814C46.2252 38.6814 41.1553 33.5387 41.1553 27.2235C41.1553 20.9084 46.2252 15.7656 52.4511 15.7656C58.6769 15.7656 63.7468 20.9084 63.7468 27.2235C63.7468 33.5387 58.6769 38.6814 52.4511 38.6814ZM52.4511 21.0949C49.1236 21.0949 46.4091 23.8483 46.4091 27.2235C46.4091 30.5987 49.1236 33.3522 52.4511 33.3522C55.7785 33.3522 58.493 30.5987 58.493 27.2235C58.493 23.8483 55.7785 21.0949 52.4511 21.0949Z" fill="#F9F9FB"/>
<path d="M67.3808 37.3041C68.6866 37.3041 69.7451 36.2304 69.7451 34.906C69.7451 33.5815 68.6866 32.5078 67.3808 32.5078C66.0751 32.5078 65.0166 33.5815 65.0166 34.906C65.0166 36.2304 66.0751 37.3041 67.3808 37.3041Z" fill="#F9F9FB"/>
<path d="M39.3602 18.723C39.3515 17.2575 38.1781 16.0762 36.7333 16.0762C36.7245 16.0762 36.7245 16.0762 36.7158 16.0762C35.2622 16.0851 34.0976 17.2841 34.1063 18.7586C34.1063 18.7852 34.0976 21.0501 33.3183 24.1766C32.7929 26.2728 31.8209 29.1062 30.0609 31.9307C28.7299 31.1224 26.9173 29.8345 25.4988 28.1825C22.9507 25.2158 22.364 21.2544 22.3552 21.2189V21.2278H22.3377C22.1275 19.9665 21.0505 19.0073 19.7458 19.0073C18.2922 19.0073 17.1189 20.1975 17.1189 21.6719C17.1189 21.9206 17.1539 22.1604 17.2152 22.3913C17.4691 23.7947 18.4761 28.138 21.5321 31.682C23.1871 33.6094 25.1748 35.1016 26.7772 36.1319C21.3745 42.0119 17.583 43.2109 17.5129 43.2465C16.1907 43.8505 15.604 45.4315 16.1994 46.7727C16.6373 47.7586 17.5917 48.3448 18.5987 48.3448C18.9577 48.3448 19.3255 48.2648 19.6757 48.105C20.0523 47.9362 25.1135 46.2397 31.891 38.3436C39.3427 29.648 39.3602 19.1671 39.3602 18.723Z" fill="#F9F9FB"/>
<path d="M77.9235 3.86424C76.5487 3.40237 75.0601 4.15734 74.6048 5.55183L68.2651 28.7252C68.2213 28.8673 68.1951 29.0094 68.1951 29.1604C68.1951 29.9509 68.8255 30.5904 69.6049 30.5904C70.1915 30.5904 70.6994 30.2263 70.9096 29.7022H70.9183L79.5872 7.23055C80.0513 5.84494 79.307 4.33499 77.9235 3.86424Z" fill="#F9F9FB"/>
</g>
<defs>
<clipPath id="clip0_3524_27633">
<rect width="80.6905" height="58" fill="white"/>
</clipPath>
</defs>
</svg>
