<svg xmlns="http://www.w3.org/2000/svg" width="81" height="81" fill="none"><circle cx="40.5" cy="40.5" r="40.5" fill="#FF588A"/><path stroke="#fff" stroke-linecap="round" stroke-linejoin="round" stroke-width="2" d="M23.47 22.47a4.167 4.167 0 0 0-1.22 2.947V27.5c0 17.258 13.992 31.25 31.25 31.25h2.083a4.167 4.167 0 0 0 4.167-4.167v-6.83a2.084 2.084 0 0 0-1.425-1.978l-9.36-3.12a2.083 2.083 0 0 0-2.521 1.045l-2.354 4.702A23.004 23.004 0 0 1 32.598 36.91l4.702-2.354a2.083 2.083 0 0 0 1.046-2.52l-3.121-9.361a2.083 2.083 0 0 0-1.975-1.425h-6.833a4.167 4.167 0 0 0-2.947 1.22Z"/></svg>