<svg width="50" height="50" viewBox="0 0 50 50" fill="none" xmlns="http://www.w3.org/2000/svg">
<path d="M35.4167 33.3333V37.5C35.4167 38.6051 34.9777 39.6649 34.1963 40.4463C33.4149 41.2277 32.3551 41.6667 31.25 41.6667H10.4167C9.3116 41.6667 8.25179 41.2277 7.47039 40.4463C6.68899 39.6649 6.25 38.6051 6.25 37.5V22.9167C6.25 21.8116 6.68899 20.7518 7.47039 19.9704C8.25179 19.189 9.3116 18.75 10.4167 18.75H14.5833M20.8333 10.4167H18.75C17.6449 10.4167 16.5851 10.8557 15.8037 11.6371C15.0223 12.4185 14.5833 13.4783 14.5833 14.5833V29.1667C14.5833 30.2717 15.0223 31.3315 15.8037 32.1129C16.5851 32.8943 17.6449 33.3333 18.75 33.3333H39.5833C40.6884 33.3333 41.7482 32.8943 42.5296 32.1129C43.311 31.3315 43.75 30.2717 43.75 29.1667V14.5833C43.75 13.4783 43.311 12.4185 42.5296 11.6371C41.7482 10.8557 40.6884 10.4167 39.5833 10.4167H37.5M35.4167 18.75L29.1667 25M29.1667 25L22.9167 18.75M29.1667 25V6.25" stroke="#FF588A" stroke-width="4" stroke-linecap="round" stroke-linejoin="round"/>
</svg>
