<svg width="23" height="23" viewBox="0 0 23 23" fill="none" xmlns="http://www.w3.org/2000/svg">
<path d="M16.0552 15.1118V17.0007C16.0552 17.5016 15.8562 17.9821 15.502 18.3363C15.1478 18.6905 14.6673 18.8895 14.1663 18.8895H4.7219C4.22093 18.8895 3.74049 18.6905 3.38625 18.3363C3.03202 17.9821 2.83301 17.5016 2.83301 17.0007V10.3895C2.83301 9.88858 3.03202 9.40813 3.38625 9.05389C3.74049 8.69966 4.22093 8.50065 4.7219 8.50065H6.61079M9.44412 4.72287H8.49967C7.99871 4.72287 7.51826 4.92188 7.16403 5.27612C6.80979 5.63035 6.61079 6.1108 6.61079 6.61176V13.2229C6.61079 13.7238 6.80979 14.2043 7.16403 14.5585C7.51826 14.9128 7.99871 15.1118 8.49967 15.1118H17.9441C18.4451 15.1118 18.9255 14.9128 19.2798 14.5585C19.634 14.2043 19.833 13.7238 19.833 13.2229V6.61176C19.833 6.1108 19.634 5.63035 19.2798 5.27612C18.9255 4.92188 18.4451 4.72287 17.9441 4.72287H16.9997M16.0552 8.50065L13.2219 11.334M13.2219 11.334L10.3886 8.50065M13.2219 11.334V2.83398" stroke="#FC7941" stroke-width="2" stroke-linecap="round" stroke-linejoin="round"/>
</svg>
