<svg xmlns="http://www.w3.org/2000/svg" width="50" height="50" fill="none"><path stroke="#FF588A" stroke-linecap="round" stroke-linejoin="round" stroke-width="4" d="M35.417 33.333V37.5a4.167 4.167 0 0 1-4.167 4.167H10.417A4.167 4.167 0 0 1 6.25 37.5V22.917a4.167 4.167 0 0 1 4.167-4.167h4.166m6.25-8.333H18.75a4.167 4.167 0 0 0-4.167 4.166v14.584a4.167 4.167 0 0 0 4.167 4.166h20.833a4.167 4.167 0 0 0 4.167-4.166V14.583a4.167 4.167 0 0 0-4.167-4.166H37.5m-2.083 8.333L29.167 25m0 0-6.25-6.25m6.25 6.25V6.25"/></svg>