<svg xmlns="http://www.w3.org/2000/svg" width="60" height="60" fill="none"><path stroke="#FF588A" stroke-linecap="round" stroke-linejoin="round" stroke-width="3" d="M52.275 27.8c0 12.226-8.875 23.676-21 27.026a4.901 4.901 0 0 1-2.55 0c-12.125-3.35-21-14.8-21-27.025V16.826c0-2.05 1.55-4.375 3.475-5.15l13.925-5.7a12.968 12.968 0 0 1 9.775 0l13.925 5.7c1.9.775 3.475 3.1 3.475 5.15L52.275 27.8Z"/><path stroke="#FF588A" stroke-linecap="round" stroke-linejoin="round" stroke-miterlimit="10" stroke-width="3" d="M30 31.25a5 5 0 1 0 0-10 5 5 0 0 0 0 10Zm0 0v7.5"/></svg>