<svg xmlns="http://www.w3.org/2000/svg" width="42" height="69" fill="none"><mask id="a" fill="#fff"><path d="M37.487 65H5.642c-2.508 0-4.388-1.84-4.388-4.023v-40.69c0-.574.501-.92 1.003-.92.501 0 1.003.46 1.003.92v40.69c0 1.15 1.003 2.184 2.382 2.184h31.845c1.253 0 2.382-.92 2.382-2.184V9.023c0-1.15-1.003-2.184-2.382-2.184H5.642c-1.254 0-2.382.92-2.382 2.184v3.678c0 .575-.502.92-1.003.92-.502 0-1.003-.345-1.003-.805V9.023C1.254 6.839 3.134 5 5.642 5h31.845c2.507 0 4.388 1.84 4.388 4.023v51.84C42 63.16 39.995 65 37.487 65Z"/></mask><path fill="#FF588A" d="M37.487 65H5.642c-2.508 0-4.388-1.84-4.388-4.023v-40.69c0-.574.501-.92 1.003-.92.501 0 1.003.46 1.003.92v40.69c0 1.15 1.003 2.184 2.382 2.184h31.845c1.253 0 2.382-.92 2.382-2.184V9.023c0-1.15-1.003-2.184-2.382-2.184H5.642c-1.254 0-2.382.92-2.382 2.184v3.678c0 .575-.502.92-1.003.92-.502 0-1.003-.345-1.003-.805V9.023C1.254 6.839 3.134 5 5.642 5h31.845c2.507 0 4.388 1.84 4.388 4.023v51.84C42 63.16 39.995 65 37.487 65Z"/><path fill="#FF588A" d="M41.875 60.862h-3v.082l.004.081 2.996-.163ZM37.487 62H5.642v6h31.845v-6ZM5.642 62c-1.043 0-1.388-.682-1.388-1.023h-6C-1.746 65.004 1.67 68 5.642 68v-6Zm-1.388-1.023v-40.69h-6v40.69h6Zm0-40.69c0 .666-.32 1.254-.757 1.622a1.92 1.92 0 0 1-1.24.459v-6c-1.649 0-4.003 1.22-4.003 3.92h6Zm-1.997 2.08a1.956 1.956 0 0 1-1.338-.5c-.238-.219-.66-.738-.66-1.58h6c0-1.301-.67-2.28-1.285-2.843-.632-.58-1.58-1.076-2.717-1.076v6ZM.26 20.288v40.69h6v-40.69h-6Zm0 40.69c0 2.947 2.49 5.184 5.382 5.184v-6c.133 0 .618.168.618.816h-6Zm5.382 5.184h31.845v-6H5.642v6Zm31.845 0c2.552 0 5.382-1.926 5.382-5.184h-6c0-.313.154-.56.292-.681a.484.484 0 0 1 .326-.135v6Zm5.382-5.184V9.023h-6v51.954h6Zm0-51.954c0-2.947-2.49-5.184-5.382-5.184v6c-.134 0-.618-.168-.618-.816h6Zm-5.382-5.184H5.642v6h31.845v-6Zm-31.845 0C3.09 3.84.26 5.765.26 9.023h6c0 .313-.154.56-.292.681a.484.484 0 0 1-.326.135v-6ZM.26 9.023v3.678h6V9.023h-6Zm0 3.678c0-.665.32-1.254.756-1.621a1.92 1.92 0 0 1 1.24-.46v6c1.65 0 4.004-1.22 4.004-3.919h-6Zm1.997-2.08c.4 0 .79.125 1.132.386.347.265.865.87.865 1.81h-6c0 1.398.769 2.405 1.492 2.958.718.548 1.61.846 2.51.846v-6Zm1.997 2.195V9.023h-6v3.793h6Zm0-3.793c0-.34.345-1.023 1.388-1.023V2C1.67 2-1.746 4.996-1.746 9.023h6ZM5.642 8h31.845V2H5.642v6Zm31.845 0c1.043 0 1.388.682 1.388 1.023h6C44.875 4.996 41.458 2 37.487 2v6Zm1.388 1.023v51.84h6V9.022h-6Zm.004 52.002c.01.187-.05.381-.26.577-.222.207-.61.398-1.132.398v6c3.864 0 7.621-2.94 7.383-7.301l-5.99.326Z" mask="url(#a)"/><mask id="b" fill="#fff"><path d="M37.237 58.218H5.894c-.627 0-1.003-.46-1.003-.92V38.104c0-.574.501-.92 1.003-.92.626 0 1.003.46 1.003.92v18.161h29.212V13.736H8.4c-.627 0-1.003-.46-1.003-.92s.502-.92 1.003-.92h28.836c.627 0 1.003.46 1.003.92v44.483c.125.46-.376.92-1.003.92Z"/></mask><path fill="#FF588A" d="M37.237 58.218H5.894c-.627 0-1.003-.46-1.003-.92V38.104c0-.574.501-.92 1.003-.92.626 0 1.003.46 1.003.92v18.161h29.212V13.736H8.4c-.627 0-1.003-.46-1.003-.92s.502-.92 1.003-.92h28.836c.627 0 1.003.46 1.003.92v44.483c.125.46-.376.92-1.003.92Z"/><path fill="#FF588A" d="M6.897 56.264h-3v3h3v-3Zm29.212 0v3h3v-3h-3Zm0-42.528h3v-3h-3v3Zm2.13 43.563h-3v.401l.107.388 2.894-.79Zm-1.002-2.08H5.894v6h31.343v-6Zm-31.343 0c1.03 0 1.997.883 1.997 2.08h-6c0 2.116 1.718 3.92 4.003 3.92v-6Zm1.997 2.08V38.103h-6V57.3h6Zm0-19.196c0 .666-.32 1.254-.757 1.622-.39.327-.835.459-1.24.459v-6c-1.649 0-4.003 1.22-4.003 3.92h6Zm-1.997 2.08c-1.03 0-1.997-.883-1.997-2.08h6c0-2.116-1.72-3.92-4.003-3.92v6Zm-1.997-2.08v18.161h6v-18.16h-6Zm3 21.161h29.212v-6H6.896v6Zm32.212-3V13.736h-6v42.528h6Zm-3-45.528H8.4v6h27.707v-6Zm-27.708 0c1.03 0 1.997.883 1.997 2.08h-6c0 2.116 1.719 3.92 4.003 3.92v-6Zm1.997 2.08c0 .842-.42 1.36-.66 1.58a1.956 1.956 0 0 1-1.337.5v-6c-1.138 0-2.085.497-2.717 1.077-.614.563-1.286 1.542-1.286 2.843h6Zm-1.997 2.08h28.836v-6H8.4v6Zm28.836 0c-1.03 0-1.997-.883-1.997-2.08h6c0-2.116-1.719-3.92-4.003-3.92v6Zm-1.997-2.08v44.483h6V12.816h-6Zm.106 45.272a2.375 2.375 0 0 1 .647-2.368c.397-.364.85-.502 1.244-.502v6c1.02 0 2.038-.367 2.81-1.076.771-.706 1.524-2.031 1.087-3.633l-5.788 1.579Z" mask="url(#b)"/></svg>