<svg xmlns="http://www.w3.org/2000/svg" width="51" height="50" fill="none"><path stroke="#FF588A" stroke-linecap="round" stroke-linejoin="round" stroke-width="3" d="m2 25.25 5.25-5.167m0 0L25.625 2 44 20.083m-36.75 0v25.834c0 .685.277 1.342.769 1.826.492.485 1.16.757 1.856.757h7.875M44 20.083l5.25 5.167M44 20.083v25.834c0 .685-.277 1.342-.769 1.826a2.647 2.647 0 0 1-1.856.757H33.5m-15.75 0c.696 0 1.364-.272 1.856-.757a2.563 2.563 0 0 0 .769-1.826V35.583c0-.685.277-1.342.769-1.826A2.647 2.647 0 0 1 23 33h5.25c.696 0 1.364.272 1.856.757.492.484.769 1.141.769 1.826v10.334c0 .685.277 1.342.769 1.826.492.485 1.16.757 1.856.757m-15.75 0H33.5"/></svg>