<svg width="24" height="24" viewBox="0 0 24 24" fill="none" xmlns="http://www.w3.org/2000/svg">
<path d="M8.61516 18.0585C8.9694 17.7043 9.1684 17.2238 9.1684 16.7229C9.1684 16.2219 8.9694 15.7415 8.61516 15.3872C8.26092 15.033 7.78048 14.834 7.27951 14.834C6.77855 14.834 6.2981 15.033 5.94387 15.3872C5.58963 15.7415 5.39062 16.2219 5.39062 16.7229C5.39062 17.2238 5.58963 17.7043 5.94387 18.0585C6.2981 18.4128 6.77855 18.6118 7.27951 18.6118C7.78048 18.6118 8.26092 18.4128 8.61516 18.0585Z" stroke="#FC7941"/>
<path d="M18.0596 18.0585C18.4138 17.7043 18.6128 17.2238 18.6128 16.7229C18.6128 16.2219 18.4138 15.7415 18.0596 15.3872C17.7054 15.033 17.2249 14.834 16.724 14.834C16.223 14.834 15.7425 15.033 15.3883 15.3872C15.0341 15.7415 14.8351 16.2219 14.8351 16.7229C14.8351 17.2238 15.0341 17.7043 15.3883 18.0585C15.7425 18.4128 16.223 18.6118 16.724 18.6118C17.2249 18.6118 17.7054 18.4128 18.0596 18.0585Z" stroke="#FC7941"/>
<path d="M12.9454 15.7795V6.33507C12.9454 6.08459 12.8459 5.84436 12.6688 5.66725C12.4917 5.49013 12.2515 5.39062 12.001 5.39062H4.44542C4.19494 5.39062 3.95472 5.49013 3.7776 5.66725C3.60048 5.84436 3.50098 6.08459 3.50098 6.33507V15.7795C3.50098 16.03 3.60048 16.2702 3.7776 16.4473C3.95472 16.6245 4.19494 16.724 4.44542 16.724H5.38987M12.9454 15.7795C12.9454 16.03 12.8459 16.2702 12.6688 16.4473C12.4917 16.6245 12.2515 16.724 12.001 16.724H9.16764M12.9454 15.7795V8.22396C12.9454 7.97348 13.0449 7.73325 13.222 7.55614C13.3992 7.37902 13.6394 7.27951 13.8899 7.27951H16.3322C16.5827 7.27957 16.8228 7.37911 16.9999 7.55624L20.2243 10.7806C20.4014 10.9576 20.5009 11.1978 20.501 11.4483V15.7795C20.501 16.03 20.4015 16.2702 20.2244 16.4473C20.0472 16.6245 19.807 16.724 19.5565 16.724H18.6121M12.9454 15.7795C12.9454 16.03 13.0449 16.2702 13.222 16.4473C13.3992 16.6245 13.6394 16.724 13.8899 16.724H14.8343M5.38987 16.724C5.38987 17.2249 5.58887 17.7054 5.94311 18.0596C6.29734 18.4138 6.77779 18.6128 7.27875 18.6128C7.77972 18.6128 8.26016 18.4138 8.6144 18.0596C8.96863 17.7054 9.16764 17.2249 9.16764 16.724M5.38987 16.724C5.38987 16.223 5.58887 15.7425 5.94311 15.3883C6.29734 15.0341 6.77779 14.8351 7.27875 14.8351C7.77972 14.8351 8.26016 15.0341 8.6144 15.3883C8.96863 15.7425 9.16764 16.223 9.16764 16.724M18.6121 16.724C18.6121 17.2249 18.4131 17.7054 18.0588 18.0596C17.7046 18.4138 17.2242 18.6128 16.7232 18.6128C16.2222 18.6128 15.7418 18.4138 15.3876 18.0596C15.0333 17.7054 14.8343 17.2249 14.8343 16.724M18.6121 16.724C18.6121 16.223 18.4131 15.7425 18.0588 15.3883C17.7046 15.0341 17.2242 14.8351 16.7232 14.8351C16.2222 14.8351 15.7418 15.0341 15.3876 15.3883C15.0333 15.7425 14.8343 16.223 14.8343 16.724" stroke="#FC7941" stroke-width="2" stroke-linecap="round" stroke-linejoin="round"/>
</svg>
