<svg xmlns="http://www.w3.org/2000/svg" width="50" height="50" fill="none"><path stroke="#FF588A" d="M17.53 38.363a4.167 4.167 0 1 0-5.893-5.893 4.167 4.167 0 0 0 5.893 5.893ZM38.363 38.363a4.167 4.167 0 1 0-5.892-5.893 4.167 4.167 0 0 0 5.892 5.893Z"/><path stroke="#FF588A" stroke-linecap="round" stroke-linejoin="round" stroke-width="4" d="M27.083 33.334V12.5A2.083 2.083 0 0 0 25 10.417H8.333A2.083 2.083 0 0 0 6.25 12.5v20.834a2.083 2.083 0 0 0 2.083 2.083h2.084m16.666-2.083A2.083 2.083 0 0 1 25 35.417h-6.25m8.333-2.083V16.667a2.083 2.083 0 0 1 2.084-2.083h5.387c.553 0 1.082.22 1.473.61l7.113 7.113c.39.39.61.92.61 1.473v9.554a2.083 2.083 0 0 1-2.083 2.083h-2.084m-12.5-2.083a2.083 2.083 0 0 0 2.084 2.083h2.083m-20.833 0a4.167 4.167 0 1 0 8.333 0m-8.333 0a4.167 4.167 0 1 1 8.333 0m20.833 0a4.167 4.167 0 1 1-8.333 0m8.333 0a4.167 4.167 0 1 0-8.333 0"/></svg>