<svg xmlns="http://www.w3.org/2000/svg" width="85" height="66" fill="none"><path stroke="#FF588A" stroke-linecap="round" stroke-linejoin="round" stroke-width="3" d="M67.394 12.033H17.606c-3.928 0-7.112 3.208-7.112 7.164v28.656c0 3.957 3.184 7.164 7.112 7.164h49.788c3.928 0 7.112-3.207 7.112-7.164V19.197c0-3.956-3.184-7.164-7.112-7.164Z"/><rect width="5.242" height="20.988" x="31.481" y="31.951" fill="#FF588A" rx="1" transform="rotate(-90 31.481 31.951)"/><rect width="4.718" height="20.988" x="31.481" y="24.613" fill="#FF588A" rx="1" transform="rotate(-90 31.481 24.613)"/><path fill="#FF588A" d="M39.998 30.902h5.268v14.726a1 1 0 0 1-1 1h-3.268a1 1 0 0 1-1-1V30.902Z"/><path stroke="#FF588A" stroke-linecap="round" stroke-linejoin="round" stroke-width="2" d="M64.233 34.049h1.053M21.03 34.049h1.054"/></svg>