<svg width="85" height="66" viewBox="0 0 85 66" fill="none" xmlns="http://www.w3.org/2000/svg">
<path d="M67.3938 12.0332H17.6064C13.6783 12.0332 10.4939 15.2406 10.4939 19.1972V47.8531C10.4939 51.8097 13.6783 55.0171 17.6064 55.0171H67.3938C71.3219 55.0171 74.5062 51.8097 74.5062 47.8531V19.1972C74.5062 15.2406 71.3219 12.0332 67.3938 12.0332Z" stroke="#FF588A" stroke-width="3" stroke-linecap="round" stroke-linejoin="round"/>
<rect x="31.4814" y="31.9512" width="5.24194" height="20.9877" rx="1" transform="rotate(-90 31.4814 31.9512)" fill="#FF588A"/>
<rect x="31.4814" y="24.6133" width="4.71774" height="20.9877" rx="1" transform="rotate(-90 31.4814 24.6133)" fill="#FF588A"/>
<path d="M39.9976 30.9023H45.2661V45.6282C45.2661 46.1804 44.8183 46.6282 44.2661 46.6282H40.9976C40.4453 46.6282 39.9976 46.1804 39.9976 45.6282V30.9023Z" fill="#FF588A"/>
<path d="M64.2327 34.0488H65.2864" stroke="#FF588A" stroke-width="2" stroke-linecap="round" stroke-linejoin="round"/>
<path d="M21.0308 34.0488H22.0845" stroke="#FF588A" stroke-width="2" stroke-linecap="round" stroke-linejoin="round"/>
</svg>
