<svg xmlns="http://www.w3.org/2000/svg" width="24" height="24" fill="none"><path fill="#111827" d="M12.313.938C6.001.938.885 6.053.885 12.366c0 6.312 5.116 11.429 11.428 11.429 6.312 0 11.429-5.117 11.429-11.429S18.625.938 12.313.938Zm0 1.656c2.49 0 4.763.93 6.488 2.464-1.268 1.672-3.194 2.786-5.124 3.54a50.92 50.92 0 0 0-3.666-5.732 9.79 9.79 0 0 1 2.303-.272Zm-4.157.925c1.274 1.907 2.508 3.674 3.636 5.675-2.852.738-6.074 1.182-9.05 1.19A9.79 9.79 0 0 1 8.155 3.52Zm11.73 2.669a9.733 9.733 0 0 1 2.2 6.114 22.927 22.927 0 0 0-6.798-.332c-.257-.642-.569-1.251-.868-1.909 1.973-.796 4.083-2.158 5.465-3.874Zm-7.3 4.518c.244.52.527 1.072.794 1.636-3.183 1.403-6.569 3.278-8.326 6.566a9.739 9.739 0 0 1-2.509-6.828c3.409-.016 6.755-.443 10.04-1.374Zm5.164 2.664c1.422 0 2.838.183 4.214.543a9.77 9.77 0 0 1-4.198 6.564c-.525-2.386-1.025-4.669-1.909-6.97a13.122 13.122 0 0 1 1.892-.137Zm4.265.177c-.007.056-.013.111-.021.166.008-.055.015-.11.021-.166Zm-7.966.406c.9 2.327 1.608 4.905 2.082 7.413a9.74 9.74 0 0 1-3.817.773 9.73 9.73 0 0 1-5.997-2.057 14.532 14.532 0 0 1 7.732-6.129Z"/></svg>